<mxfile host="Electron" modified="2024-02-17T09:55:34.890Z" agent="Mozilla/5.0 (Windows NT 10.0; Win64; x64) AppleWebKit/537.36 (KHTML, like Gecko) draw.io/21.2.8 Chrome/112.0.5615.165 Electron/24.2.0 Safari/537.36" etag="5nuDEFEz-LcdruJqlDeN" version="21.2.8" type="device">
  <diagram id="C5RBs43oDa-KdzZeNtuy" name="Page-1">
    <mxGraphModel dx="1036" dy="606" grid="1" gridSize="10" guides="1" tooltips="1" connect="1" arrows="1" fold="1" page="1" pageScale="1" pageWidth="827" pageHeight="1169" math="0" shadow="0">
      <root>
        <mxCell id="WIyWlLk6GJQsqaUBKTNV-0" />
        <mxCell id="WIyWlLk6GJQsqaUBKTNV-1" parent="WIyWlLk6GJQsqaUBKTNV-0" />
        <mxCell id="RHzVc_Xh4LdoEXGN3xyW-0" value="" style="rounded=0;whiteSpace=wrap;html=1;fillColor=#A9C4EB;" vertex="1" parent="WIyWlLk6GJQsqaUBKTNV-1">
          <mxGeometry x="150" y="30" width="590" height="830" as="geometry" />
        </mxCell>
        <mxCell id="RHzVc_Xh4LdoEXGN3xyW-1" value="Quai Antique" style="text;strokeColor=none;fillColor=none;html=1;fontSize=24;fontStyle=1;verticalAlign=middle;align=center;" vertex="1" parent="WIyWlLk6GJQsqaUBKTNV-1">
          <mxGeometry x="580" y="60" width="100" height="40" as="geometry" />
        </mxCell>
        <mxCell id="RHzVc_Xh4LdoEXGN3xyW-2" value="Gérer les informations du restaurant" style="ellipse;whiteSpace=wrap;html=1;" vertex="1" parent="WIyWlLk6GJQsqaUBKTNV-1">
          <mxGeometry x="180" y="60" width="100" height="80" as="geometry" />
        </mxCell>
        <mxCell id="RHzVc_Xh4LdoEXGN3xyW-21" style="rounded=0;orthogonalLoop=1;jettySize=auto;html=1;entryX=0;entryY=1;entryDx=0;entryDy=0;endArrow=none;endFill=0;" edge="1" parent="WIyWlLk6GJQsqaUBKTNV-1" source="RHzVc_Xh4LdoEXGN3xyW-3" target="RHzVc_Xh4LdoEXGN3xyW-2">
          <mxGeometry relative="1" as="geometry" />
        </mxCell>
        <mxCell id="RHzVc_Xh4LdoEXGN3xyW-22" style="rounded=0;orthogonalLoop=1;jettySize=auto;html=1;endArrow=none;endFill=0;" edge="1" parent="WIyWlLk6GJQsqaUBKTNV-1" source="RHzVc_Xh4LdoEXGN3xyW-3" target="RHzVc_Xh4LdoEXGN3xyW-9">
          <mxGeometry relative="1" as="geometry" />
        </mxCell>
        <mxCell id="RHzVc_Xh4LdoEXGN3xyW-23" style="rounded=0;orthogonalLoop=1;jettySize=auto;html=1;endArrow=none;endFill=0;" edge="1" parent="WIyWlLk6GJQsqaUBKTNV-1" source="RHzVc_Xh4LdoEXGN3xyW-3" target="RHzVc_Xh4LdoEXGN3xyW-10">
          <mxGeometry relative="1" as="geometry" />
        </mxCell>
        <mxCell id="RHzVc_Xh4LdoEXGN3xyW-24" style="rounded=0;orthogonalLoop=1;jettySize=auto;html=1;endArrow=none;endFill=0;" edge="1" parent="WIyWlLk6GJQsqaUBKTNV-1" source="RHzVc_Xh4LdoEXGN3xyW-3" target="RHzVc_Xh4LdoEXGN3xyW-11">
          <mxGeometry relative="1" as="geometry" />
        </mxCell>
        <mxCell id="RHzVc_Xh4LdoEXGN3xyW-25" style="rounded=0;orthogonalLoop=1;jettySize=auto;html=1;endArrow=none;endFill=0;" edge="1" parent="WIyWlLk6GJQsqaUBKTNV-1" source="RHzVc_Xh4LdoEXGN3xyW-3" target="RHzVc_Xh4LdoEXGN3xyW-12">
          <mxGeometry relative="1" as="geometry" />
        </mxCell>
        <mxCell id="RHzVc_Xh4LdoEXGN3xyW-26" style="rounded=0;orthogonalLoop=1;jettySize=auto;html=1;endArrow=none;endFill=0;" edge="1" parent="WIyWlLk6GJQsqaUBKTNV-1" source="RHzVc_Xh4LdoEXGN3xyW-3" target="RHzVc_Xh4LdoEXGN3xyW-13">
          <mxGeometry relative="1" as="geometry" />
        </mxCell>
        <mxCell id="RHzVc_Xh4LdoEXGN3xyW-3" value="Administrateur" style="shape=umlActor;verticalLabelPosition=bottom;verticalAlign=top;html=1;outlineConnect=0;" vertex="1" parent="WIyWlLk6GJQsqaUBKTNV-1">
          <mxGeometry x="60" y="220" width="30" height="60" as="geometry" />
        </mxCell>
        <mxCell id="RHzVc_Xh4LdoEXGN3xyW-27" style="rounded=0;orthogonalLoop=1;jettySize=auto;html=1;endArrow=none;endFill=0;" edge="1" parent="WIyWlLk6GJQsqaUBKTNV-1" source="RHzVc_Xh4LdoEXGN3xyW-4" target="RHzVc_Xh4LdoEXGN3xyW-13">
          <mxGeometry relative="1" as="geometry" />
        </mxCell>
        <mxCell id="RHzVc_Xh4LdoEXGN3xyW-29" style="rounded=0;orthogonalLoop=1;jettySize=auto;html=1;endArrow=none;endFill=0;" edge="1" parent="WIyWlLk6GJQsqaUBKTNV-1" source="RHzVc_Xh4LdoEXGN3xyW-4" target="RHzVc_Xh4LdoEXGN3xyW-15">
          <mxGeometry relative="1" as="geometry" />
        </mxCell>
        <mxCell id="RHzVc_Xh4LdoEXGN3xyW-30" style="rounded=0;orthogonalLoop=1;jettySize=auto;html=1;endArrow=none;endFill=0;" edge="1" parent="WIyWlLk6GJQsqaUBKTNV-1" source="RHzVc_Xh4LdoEXGN3xyW-4" target="RHzVc_Xh4LdoEXGN3xyW-16">
          <mxGeometry relative="1" as="geometry" />
        </mxCell>
        <mxCell id="RHzVc_Xh4LdoEXGN3xyW-31" style="rounded=0;orthogonalLoop=1;jettySize=auto;html=1;endArrow=none;endFill=0;" edge="1" parent="WIyWlLk6GJQsqaUBKTNV-1" source="RHzVc_Xh4LdoEXGN3xyW-4" target="RHzVc_Xh4LdoEXGN3xyW-17">
          <mxGeometry relative="1" as="geometry" />
        </mxCell>
        <mxCell id="RHzVc_Xh4LdoEXGN3xyW-4" value="Client" style="shape=umlActor;verticalLabelPosition=bottom;verticalAlign=top;html=1;outlineConnect=0;" vertex="1" parent="WIyWlLk6GJQsqaUBKTNV-1">
          <mxGeometry x="60" y="555" width="30" height="60" as="geometry" />
        </mxCell>
        <mxCell id="RHzVc_Xh4LdoEXGN3xyW-28" style="rounded=0;orthogonalLoop=1;jettySize=auto;html=1;endArrow=none;endFill=0;" edge="1" parent="WIyWlLk6GJQsqaUBKTNV-1" source="RHzVc_Xh4LdoEXGN3xyW-5" target="RHzVc_Xh4LdoEXGN3xyW-13">
          <mxGeometry relative="1" as="geometry" />
        </mxCell>
        <mxCell id="RHzVc_Xh4LdoEXGN3xyW-40" style="rounded=0;orthogonalLoop=1;jettySize=auto;html=1;entryX=1;entryY=0;entryDx=0;entryDy=0;endArrow=none;endFill=0;" edge="1" parent="WIyWlLk6GJQsqaUBKTNV-1" source="RHzVc_Xh4LdoEXGN3xyW-5" target="RHzVc_Xh4LdoEXGN3xyW-17">
          <mxGeometry relative="1" as="geometry" />
        </mxCell>
        <mxCell id="RHzVc_Xh4LdoEXGN3xyW-41" style="rounded=0;orthogonalLoop=1;jettySize=auto;html=1;endArrow=none;endFill=0;" edge="1" parent="WIyWlLk6GJQsqaUBKTNV-1" source="RHzVc_Xh4LdoEXGN3xyW-5" target="RHzVc_Xh4LdoEXGN3xyW-18">
          <mxGeometry relative="1" as="geometry" />
        </mxCell>
        <mxCell id="RHzVc_Xh4LdoEXGN3xyW-5" value="Visiteur" style="shape=umlActor;verticalLabelPosition=bottom;verticalAlign=top;html=1;outlineConnect=0;" vertex="1" parent="WIyWlLk6GJQsqaUBKTNV-1">
          <mxGeometry x="760" y="400" width="30" height="60" as="geometry" />
        </mxCell>
        <mxCell id="RHzVc_Xh4LdoEXGN3xyW-9" value="Gérer les menus" style="ellipse;whiteSpace=wrap;html=1;" vertex="1" parent="WIyWlLk6GJQsqaUBKTNV-1">
          <mxGeometry x="250" y="130" width="90" height="80" as="geometry" />
        </mxCell>
        <mxCell id="RHzVc_Xh4LdoEXGN3xyW-10" value="Gérer les plats" style="ellipse;whiteSpace=wrap;html=1;" vertex="1" parent="WIyWlLk6GJQsqaUBKTNV-1">
          <mxGeometry x="354" y="180" width="96" height="80" as="geometry" />
        </mxCell>
        <mxCell id="RHzVc_Xh4LdoEXGN3xyW-11" value="Gérer les réservations" style="ellipse;whiteSpace=wrap;html=1;" vertex="1" parent="WIyWlLk6GJQsqaUBKTNV-1">
          <mxGeometry x="270" y="250" width="120" height="80" as="geometry" />
        </mxCell>
        <mxCell id="RHzVc_Xh4LdoEXGN3xyW-12" value="Gérer les images" style="ellipse;whiteSpace=wrap;html=1;" vertex="1" parent="WIyWlLk6GJQsqaUBKTNV-1">
          <mxGeometry x="200" y="330" width="120" height="80" as="geometry" />
        </mxCell>
        <mxCell id="RHzVc_Xh4LdoEXGN3xyW-13" value="Afficher la carte" style="ellipse;whiteSpace=wrap;html=1;" vertex="1" parent="WIyWlLk6GJQsqaUBKTNV-1">
          <mxGeometry x="170" y="430" width="120" height="80" as="geometry" />
        </mxCell>
        <mxCell id="RHzVc_Xh4LdoEXGN3xyW-15" value="Modifier ses données personnees" style="ellipse;whiteSpace=wrap;html=1;" vertex="1" parent="WIyWlLk6GJQsqaUBKTNV-1">
          <mxGeometry x="240" y="520" width="110" height="80" as="geometry" />
        </mxCell>
        <mxCell id="RHzVc_Xh4LdoEXGN3xyW-16" value="Gestion de ses réservations" style="ellipse;whiteSpace=wrap;html=1;" vertex="1" parent="WIyWlLk6GJQsqaUBKTNV-1">
          <mxGeometry x="170" y="740" width="110" height="80" as="geometry" />
        </mxCell>
        <mxCell id="RHzVc_Xh4LdoEXGN3xyW-17" value="Réserver une table" style="ellipse;whiteSpace=wrap;html=1;" vertex="1" parent="WIyWlLk6GJQsqaUBKTNV-1">
          <mxGeometry x="320" y="615" width="100" height="80" as="geometry" />
        </mxCell>
        <mxCell id="RHzVc_Xh4LdoEXGN3xyW-18" value="Inscription" style="ellipse;whiteSpace=wrap;html=1;" vertex="1" parent="WIyWlLk6GJQsqaUBKTNV-1">
          <mxGeometry x="490" y="650" width="100" height="80" as="geometry" />
        </mxCell>
        <mxCell id="RHzVc_Xh4LdoEXGN3xyW-19" value="Connexion" style="ellipse;whiteSpace=wrap;html=1;" vertex="1" parent="WIyWlLk6GJQsqaUBKTNV-1">
          <mxGeometry x="340" y="770" width="100" height="80" as="geometry" />
        </mxCell>
        <mxCell id="RHzVc_Xh4LdoEXGN3xyW-20" value="Gérer les catégories" style="ellipse;whiteSpace=wrap;html=1;" vertex="1" parent="WIyWlLk6GJQsqaUBKTNV-1">
          <mxGeometry x="550" y="180" width="96" height="80" as="geometry" />
        </mxCell>
        <mxCell id="RHzVc_Xh4LdoEXGN3xyW-39" value="includes" style="endArrow=open;endSize=12;dashed=1;html=1;rounded=0;entryX=0.664;entryY=0.97;entryDx=0;entryDy=0;entryPerimeter=0;" edge="1" parent="WIyWlLk6GJQsqaUBKTNV-1" source="RHzVc_Xh4LdoEXGN3xyW-19" target="RHzVc_Xh4LdoEXGN3xyW-17">
          <mxGeometry x="0.0348" y="1" width="160" relative="1" as="geometry">
            <mxPoint x="360" y="720" as="sourcePoint" />
            <mxPoint x="520" y="720" as="targetPoint" />
            <mxPoint as="offset" />
          </mxGeometry>
        </mxCell>
        <mxCell id="RHzVc_Xh4LdoEXGN3xyW-46" value="extends" style="endArrow=open;endSize=12;dashed=1;html=1;rounded=0;" edge="1" parent="WIyWlLk6GJQsqaUBKTNV-1">
          <mxGeometry width="160" relative="1" as="geometry">
            <mxPoint x="450" y="220" as="sourcePoint" />
            <mxPoint x="550" y="220" as="targetPoint" />
            <Array as="points">
              <mxPoint x="500" y="220" />
            </Array>
            <mxPoint as="offset" />
          </mxGeometry>
        </mxCell>
      </root>
    </mxGraphModel>
  </diagram>
</mxfile>
